<?xml version="1.0" encoding="UTF-8"?><svg id="a" xmlns="http://www.w3.org/2000/svg" viewBox="0 0 477 477"><defs><style>.b{fill:#fff;stroke:#231f20;stroke-miterlimit:10;stroke-width:17px;}</style></defs><rect class="b" x="8.5" y="8.5" width="460" height="460" rx="102.51" ry="102.51"/><path d="M332.88,345.87c-20.42,12.59-47.96,19.46-82.62,20.66v37.75h-26.35v-38.46c-33.48-2.14-60.01-10.45-79.6-24.93-19.59-14.48-29.86-33.95-30.8-58.4h48.08c1.18,21.85,8.37,37.63,21.55,47.37,13.18,9.74,32.58,14.6,58.22,14.6,21.13,0,36.68-3.68,46.65-11.04,9.97-7.36,14.96-18.28,14.96-32.76,0-7.84-1.78-14.6-5.34-20.3-3.56-5.7-10.51-10.92-20.84-15.67-10.32-4.75-25.46-9.02-45.41-12.82-31.34-6.17-57.75-14.96-79.24-26.35-21.49-11.39-32.23-28.13-32.23-50.21,0-40.6,34.66-62.08,103.99-64.46v-38.1h26.35v38.1c34.19,1.43,60.13,8.37,77.81,20.83,17.69,12.46,27.36,28.67,29.02,48.61h-47.36c-3.33-17.33-11.16-29.61-23.51-36.86-12.35-7.24-29.2-10.86-50.57-10.86-18.76,0-32.71,3.2-41.84,9.62-9.14,6.41-13.71,14.6-13.71,24.57,0,5.46,1.6,10.33,4.81,14.6,3.2,4.28,9.73,8.49,19.59,12.64,9.85,4.16,24.28,8.37,43.27,12.64,26.83,5.94,48.08,11.87,63.75,17.81,15.67,5.94,28.25,14.42,37.75,25.46,9.49,11.04,14.24,25.7,14.24,43.98,0,22.08-10.21,39.41-30.62,52Z"/></svg>